<svg width="341" height="341" viewBox="0 0 341 341" fill="none" xmlns="http://www.w3.org/2000/svg">
<rect width="341" height="341" fill="white"/>
<path d="M253.172 48.5197C249.033 51.2452 245.298 53.7183 244.895 53.9202C244.34 54.2735 244.844 55.3838 247.216 59.3206C263.367 85.9191 273.613 115.092 277.348 144.819C279.67 163.443 279.67 177.171 277.348 195.795C273.613 225.523 263.367 254.696 247.267 281.243C245.601 283.969 244.34 286.291 244.39 286.341C244.491 286.442 248.276 288.915 252.819 291.893L260.995 297.243L263.367 293.559C278.408 270.14 290.269 239.453 295.518 210.382C298.193 195.947 299 186.105 299 170.307C299 158.346 298.798 154.005 297.89 146.384C294.357 116.808 286.685 91.0671 273.865 65.8314C269.525 57.2513 262.661 45.2896 261.348 44.0782C260.894 43.6745 258.825 44.7848 253.172 48.5197Z" fill="#001F3F"/>
<path d="M204.366 77.5913C199.975 80.5691 196.392 83.1431 196.392 83.345C196.392 83.5469 197.956 86.2724 199.874 89.4016C209.918 105.956 216.732 123.823 220.315 143.053C222.183 153.248 222.839 159.91 222.839 170.307C222.839 180.704 222.183 187.367 220.315 197.562C216.732 216.791 209.918 234.658 199.874 251.213C197.956 254.342 196.392 257.068 196.392 257.27C196.442 257.572 211.584 268.02 212.543 268.373C212.997 268.525 219.407 258.128 222.839 251.566C230.561 237.03 236.668 219.365 239.999 202.104C242.27 190.193 242.977 182.774 242.977 170.307C242.977 138.056 234.094 106.966 216.732 78.2979C214.662 74.9163 212.795 72.1404 212.644 72.1404C212.442 72.1908 208.707 74.6134 204.366 77.5913Z" fill="#001F3F"/>
<path d="M156.469 107.067L148.545 112.669L151.068 116.505C154.601 121.855 160.103 133.463 162.273 139.974C166.967 154.207 168.632 169.904 166.916 183.682C165.755 192.717 162.828 205.032 161.92 204.729C161.718 204.678 137.34 186.054 107.814 163.342C78.2885 140.63 53.9613 122.006 53.8098 121.956C53.2547 121.804 48.0561 134.17 46.1887 140.024C42.5547 151.431 40.5359 166.219 41.091 176.869C41.4443 183.531 43.2108 192.262 45.7344 199.682C47.5009 204.88 53.2042 217.296 54.6679 219.063C55.2735 219.82 56.0811 219.416 63.248 214.773C67.639 211.946 71.3234 209.473 71.5253 209.271C71.7272 209.12 70.6168 206.394 69.0522 203.265C65.923 196.805 63.0966 188.78 62.0872 183.178C60.8758 176.616 61.3301 162.484 62.9956 155.62C63.1975 154.661 70.1121 159.809 116.647 195.594C146.072 218.205 170.197 236.677 170.399 236.677C171.156 236.677 178.979 218.508 181.402 211.189C191.143 181.562 189.578 150.169 177.011 122.208C173.175 113.678 165.957 101.414 164.847 101.464C164.595 101.464 160.809 103.988 156.469 107.067Z" fill="#001F3F"/>
</svg>
