<svg width="918" height="287" viewBox="0 0 918 287" fill="none" xmlns="http://www.w3.org/2000/svg">
<path d="M22.5 90V78H89.25V90H62.25V183H49.5V90H22.5ZM92.4352 161.7C92.4352 164.3 93.0352 166.55 94.2352 168.45C95.5352 170.35 97.2852 171.8 99.4852 172.8C101.785 173.7 104.385 174.15 107.285 174.15C110.985 174.15 114.285 173.4 117.185 171.9C120.185 170.4 122.535 168.3 124.235 165.6C126.035 162.8 126.935 159.6 126.935 156L129.335 165C129.335 169.4 127.985 173.05 125.285 175.95C122.685 178.85 119.435 181 115.535 182.4C111.735 183.8 107.935 184.5 104.135 184.5C99.9352 184.5 95.9852 183.65 92.2852 181.95C88.6852 180.15 85.7852 177.6 83.5852 174.3C81.3852 171 80.2852 167 80.2852 162.3C80.2852 155.6 82.6352 150.25 87.3352 146.25C92.1352 142.15 98.7852 140.1 107.285 140.1C112.285 140.1 116.435 140.7 119.735 141.9C123.135 143 125.835 144.3 127.835 145.8C129.835 147.2 131.185 148.35 131.885 149.25V156.3C128.385 153.9 124.785 152.2 121.085 151.2C117.385 150.1 113.435 149.55 109.235 149.55C105.335 149.55 102.135 150.05 99.6352 151.05C97.2352 152.05 95.4352 153.45 94.2352 155.25C93.0352 157.05 92.4352 159.2 92.4352 161.7ZM90.6352 129.9L84.7852 121.05C87.3852 119.15 90.9352 117.25 95.4352 115.35C100.035 113.45 105.535 112.5 111.935 112.5C117.335 112.5 122.035 113.35 126.035 115.05C130.135 116.65 133.285 119 135.485 122.1C137.785 125.2 138.935 129 138.935 133.5V183H126.935V135.15C126.935 132.75 126.535 130.8 125.735 129.3C124.935 127.7 123.785 126.45 122.285 125.55C120.885 124.65 119.235 124 117.335 123.6C115.435 123.2 113.435 123 111.335 123C107.935 123 104.835 123.4 102.035 124.2C99.3352 125 97.0352 125.95 95.1352 127.05C93.2352 128.15 91.7352 129.1 90.6352 129.9ZM170.502 216H158.502V114H170.502V216ZM228.252 148.5C228.252 155.9 226.702 162.3 223.602 167.7C220.502 173.1 216.352 177.25 211.152 180.15C206.052 183.05 200.352 184.5 194.052 184.5C188.352 184.5 183.302 183.05 178.902 180.15C174.602 177.25 171.202 173.1 168.702 167.7C166.302 162.3 165.102 155.9 165.102 148.5C165.102 141 166.302 134.6 168.702 129.3C171.202 123.9 174.602 119.75 178.902 116.85C183.302 113.95 188.352 112.5 194.052 112.5C200.352 112.5 206.052 113.95 211.152 116.85C216.352 119.75 220.502 123.9 223.602 129.3C226.702 134.6 228.252 141 228.252 148.5ZM216.102 148.5C216.102 143.2 215.002 138.7 212.802 135C210.702 131.3 207.852 128.5 204.252 126.6C200.752 124.7 196.852 123.75 192.552 123.75C189.052 123.75 185.602 124.7 182.202 126.6C178.802 128.5 176.002 131.3 173.802 135C171.602 138.7 170.502 143.2 170.502 148.5C170.502 153.8 171.602 158.3 173.802 162C176.002 165.7 178.802 168.5 182.202 170.4C185.602 172.3 189.052 173.25 192.552 173.25C196.852 173.25 200.752 172.3 204.252 170.4C207.852 168.5 210.702 165.7 212.802 162C215.002 158.3 216.102 153.8 216.102 148.5ZM252.599 90V78H299.549V90H252.599ZM252.599 132V120H298.049V132H252.599ZM245.549 78H258.299V183H245.549V78ZM341.958 184.5C335.558 184.5 329.858 183 324.858 180C319.958 176.9 316.108 172.65 313.308 167.25C310.608 161.85 309.258 155.6 309.258 148.5C309.258 141.3 310.658 135 313.458 129.6C316.358 124.2 320.358 120 325.458 117C330.658 114 336.658 112.5 343.458 112.5C350.258 112.5 356.058 113.95 360.858 116.85C365.758 119.65 369.508 123.7 372.108 129C374.708 134.3 376.008 140.6 376.008 147.9C376.008 148.6 375.958 149.35 375.858 150.15C375.858 150.85 375.858 151.3 375.858 151.5H316.908V141.3H366.408L361.608 148.2C361.908 147.7 362.208 146.95 362.508 145.95C362.808 144.85 362.958 143.95 362.958 143.25C362.958 139.15 362.108 135.6 360.408 132.6C358.808 129.6 356.558 127.25 353.658 125.55C350.758 123.85 347.358 123 343.458 123C338.858 123 334.908 124 331.608 126C328.408 127.9 325.908 130.7 324.108 134.4C322.408 138 321.508 142.45 321.408 147.75C321.408 153.15 322.258 157.75 323.958 161.55C325.658 165.35 328.158 168.25 331.458 170.25C334.758 172.25 338.758 173.25 343.458 173.25C348.158 173.25 352.308 172.25 355.908 170.25C359.508 168.15 362.558 165 365.058 160.8L374.808 166.95C371.208 172.75 366.658 177.15 361.158 180.15C355.758 183.05 349.358 184.5 341.958 184.5ZM419.155 184.5C412.755 184.5 407.055 183 402.055 180C397.155 176.9 393.305 172.65 390.505 167.25C387.805 161.85 386.455 155.6 386.455 148.5C386.455 141.3 387.855 135 390.655 129.6C393.555 124.2 397.555 120 402.655 117C407.855 114 413.855 112.5 420.655 112.5C427.455 112.5 433.255 113.95 438.055 116.85C442.955 119.65 446.705 123.7 449.305 129C451.905 134.3 453.205 140.6 453.205 147.9C453.205 148.6 453.155 149.35 453.055 150.15C453.055 150.85 453.055 151.3 453.055 151.5H394.105V141.3H443.605L438.805 148.2C439.105 147.7 439.405 146.95 439.705 145.95C440.005 144.85 440.155 143.95 440.155 143.25C440.155 139.15 439.305 135.6 437.605 132.6C436.005 129.6 433.755 127.25 430.855 125.55C427.955 123.85 424.555 123 420.655 123C416.055 123 412.105 124 408.805 126C405.605 127.9 403.105 130.7 401.305 134.4C399.605 138 398.705 142.45 398.605 147.75C398.605 153.15 399.455 157.75 401.155 161.55C402.855 165.35 405.355 168.25 408.655 170.25C411.955 172.25 415.955 173.25 420.655 173.25C425.355 173.25 429.505 172.25 433.105 170.25C436.705 168.15 439.755 165 442.255 160.8L452.005 166.95C448.405 172.75 443.855 177.15 438.355 180.15C432.955 183.05 426.555 184.5 419.155 184.5ZM521.402 66H533.402V183H521.402V66ZM463.652 148.5C463.652 141 465.202 134.6 468.302 129.3C471.402 123.9 475.552 119.75 480.752 116.85C485.952 113.95 491.652 112.5 497.852 112.5C503.652 112.5 508.702 113.95 513.002 116.85C517.302 119.75 520.652 123.9 523.052 129.3C525.552 134.6 526.802 141 526.802 148.5C526.802 155.9 525.552 162.3 523.052 167.7C520.652 173.1 517.302 177.25 513.002 180.15C508.702 183.05 503.652 184.5 497.852 184.5C491.652 184.5 485.952 183.05 480.752 180.15C475.552 177.25 471.402 173.1 468.302 167.7C465.202 162.3 463.652 155.9 463.652 148.5ZM475.802 148.5C475.802 153.8 476.852 158.3 478.952 162C481.152 165.7 484.052 168.5 487.652 170.4C491.252 172.3 495.152 173.25 499.352 173.25C502.852 173.25 506.302 172.3 509.702 170.4C513.102 168.5 515.902 165.7 518.102 162C520.302 158.3 521.402 153.8 521.402 148.5C521.402 143.2 520.302 138.7 518.102 135C515.902 131.3 513.102 128.5 509.702 126.6C506.302 124.7 502.852 123.75 499.352 123.75C495.152 123.75 491.252 124.7 487.652 126.6C484.052 128.5 481.152 131.3 478.952 135C476.852 138.7 475.802 143.2 475.802 148.5ZM558.199 177C558.199 174.7 558.999 172.75 560.599 171.15C562.299 169.55 564.249 168.75 566.449 168.75C568.749 168.75 570.699 169.55 572.299 171.15C573.899 172.75 574.699 174.7 574.699 177C574.699 179.2 573.899 181.15 572.299 182.85C570.699 184.45 568.749 185.25 566.449 185.25C564.249 185.25 562.299 184.45 560.599 182.85C558.999 181.15 558.199 179.2 558.199 177ZM651.92 66H663.92V183H651.92V66ZM594.17 148.5C594.17 141 595.72 134.6 598.82 129.3C601.92 123.9 606.07 119.75 611.27 116.85C616.47 113.95 622.17 112.5 628.37 112.5C634.17 112.5 639.22 113.95 643.52 116.85C647.82 119.75 651.17 123.9 653.57 129.3C656.07 134.6 657.32 141 657.32 148.5C657.32 155.9 656.07 162.3 653.57 167.7C651.17 173.1 647.82 177.25 643.52 180.15C639.22 183.05 634.17 184.5 628.37 184.5C622.17 184.5 616.47 183.05 611.27 180.15C606.07 177.25 601.92 173.1 598.82 167.7C595.72 162.3 594.17 155.9 594.17 148.5ZM606.32 148.5C606.32 153.8 607.37 158.3 609.47 162C611.67 165.7 614.57 168.5 618.17 170.4C621.77 172.3 625.67 173.25 629.87 173.25C633.37 173.25 636.82 172.3 640.22 170.4C643.62 168.5 646.42 165.7 648.62 162C650.82 158.3 651.92 153.8 651.92 148.5C651.92 143.2 650.82 138.7 648.62 135C646.42 131.3 643.62 128.5 640.22 126.6C636.82 124.7 633.37 123.75 629.87 123.75C625.67 123.75 621.77 124.7 618.17 126.6C614.57 128.5 611.67 131.3 609.47 135C607.37 138.7 606.32 143.2 606.32 148.5ZM684.967 66H696.967V183H684.967V66ZM722.467 114H737.467L707.467 142.5L740.467 183H725.467L692.467 142.5L722.467 114Z" fill="#001F3F"/>
<path d="M888.513 63.886C885.87 65.6262 883.485 67.2053 883.227 67.3342C882.873 67.5598 883.195 68.2688 884.71 70.7825C895.022 87.7659 901.564 106.393 903.949 125.374C905.432 137.266 905.432 146.031 903.949 157.923C901.564 176.905 895.022 195.531 884.742 212.483C883.679 214.223 882.873 215.705 882.905 215.738C882.97 215.802 885.387 217.381 888.287 219.282L893.508 222.698L895.022 220.346C904.626 205.393 912.199 185.799 915.551 167.237C917.259 158.02 917.774 151.736 917.774 141.649C917.774 134.011 917.645 131.239 917.065 126.373C914.81 107.489 909.911 91.053 901.726 74.9397C898.954 69.4612 894.571 61.8235 893.733 61.05C893.443 60.7922 892.122 61.5012 888.513 63.886Z" fill="#001F3F"/>
<path d="M857.35 82.4485C854.546 84.3498 852.258 85.9934 852.258 86.1223C852.258 86.2512 853.257 87.9914 854.481 89.9895C860.895 100.56 865.245 111.968 867.533 124.246C868.726 130.756 869.145 135.01 869.145 141.649C869.145 148.287 868.726 152.541 867.533 159.051C865.245 171.329 860.895 182.738 854.481 193.308C853.257 195.306 852.258 197.046 852.258 197.175C852.29 197.368 861.958 204.039 862.57 204.265C862.86 204.362 866.953 197.723 869.145 193.533C874.075 184.252 877.975 172.973 880.102 161.951C881.552 154.346 882.003 149.609 882.003 141.649C882.003 121.056 876.331 101.204 865.245 82.8997C863.924 80.7405 862.731 78.968 862.635 78.968C862.506 79.0002 860.121 80.5471 857.35 82.4485Z" fill="#001F3F"/>
<path d="M826.728 102.359L821.668 105.936L823.28 108.385C825.536 111.801 829.048 119.213 830.434 123.371C833.431 132.459 834.495 142.481 833.399 151.279C832.658 157.047 830.789 164.911 830.209 164.717C830.08 164.685 814.514 152.794 795.662 138.292C776.809 123.79 761.276 111.898 761.179 111.866C760.825 111.769 757.505 119.665 756.313 123.403C753.993 130.686 752.704 140.128 753.058 146.928C753.284 151.182 754.412 156.757 756.023 161.495C757.151 164.814 760.793 172.742 761.727 173.87C762.114 174.353 762.629 174.095 767.206 171.13C770.009 169.326 772.362 167.747 772.491 167.618C772.62 167.521 771.911 165.781 770.912 163.783C768.914 159.658 767.109 154.534 766.464 150.957C765.691 146.767 765.981 137.744 767.044 133.361C767.173 132.749 771.588 136.036 801.301 158.884C820.089 173.322 835.494 185.117 835.623 185.117C836.106 185.117 841.101 173.515 842.648 168.842C848.868 149.925 847.869 129.88 839.844 112.027C837.395 106.581 832.787 98.7496 832.078 98.7818C831.917 98.7818 829.5 100.393 826.728 102.359Z" fill="#001F3F"/>
</svg>
